<?xml version="1.0" standalone="no"?>
<!DOCTYPE svg PUBLIC "-//W3C//DTD SVG 20010904//EN"
 "http://www.w3.org/TR/2001/REC-SVG-20010904/DTD/svg10.dtd">
<svg version="1.0" xmlns="http://www.w3.org/2000/svg"
 width="784.000000pt" height="1168.000000pt" viewBox="0 0 784.000000 1168.000000"
 preserveAspectRatio="xMidYMid meet">
<metadata>
Created by potrace 1.16, written by Peter Selinger 2001-2019
</metadata>
<g transform="translate(0.000000,1168.000000) scale(0.100000,-0.100000)"
fill="#000000" stroke="none">
<path d="M3990 7744 c-99 -25 -180 -73 -255 -148 -180 -181 -225 -437 -115
-661 33 -68 114 -155 167 -180 19 -9 37 -23 39 -30 3 -8 12 -11 20 -8 7 3 29
-4 47 -16 19 -12 45 -21 59 -21 14 0 27 -3 31 -6 9 -9 178 -11 212 -2 17 4 49
9 73 12 58 7 112 26 140 50 12 11 22 16 22 12 0 -5 15 5 33 20 18 16 47 40 65
53 18 13 32 28 32 33 0 5 11 24 24 41 68 91 98 187 97 319 -1 266 -148 471
-384 534 -67 18 -236 17 -307 -2z"/>
<path d="M3785 6540 c-188 -8 -256 -17 -365 -52 -105 -34 -161 -67 -230 -137
-75 -75 -110 -142 -141 -265 -19 -75 -21 -120 -26 -592 -7 -604 -9 -587 92
-653 33 -21 52 -26 110 -26 89 0 143 24 176 80 24 40 24 41 29 430 5 364 6
393 24 420 52 79 109 95 331 94 l170 0 26 31 c15 18 40 66 55 108 45 125 106
212 147 212 10 0 15 4 12 10 -4 7 43 35 70 40 3 1 26 7 52 15 27 8 84 13 130
12 69 -2 85 -6 98 -22 9 -11 14 -14 10 -7 -8 15 -3 15 29 1 14 -7 23 -16 20
-20 -3 -5 1 -7 8 -4 17 7 90 -54 82 -67 -4 -7 -2 -8 4 -4 15 9 39 -29 71 -112
l26 -67 1 -526 c1 -479 3 -529 19 -563 21 -44 96 -111 106 -95 4 6 9 7 12 2 7
-11 97 -8 149 5 43 11 89 45 112 83 30 49 36 162 36 665 0 469 -1 506 -20 580
-28 110 -71 193 -132 254 -117 118 -216 158 -413 171 -152 9 -623 9 -880 -1z"/>
<path d="M4360 6064 c-101 -37 -136 -77 -145 -167 -3 -34 -5 -276 -3 -538 l3
-476 27 -35 c15 -20 24 -39 20 -43 -4 -5 -2 -5 5 -1 6 3 28 -3 47 -14 20 -11
36 -16 36 -12 0 4 25 6 55 5 30 -1 57 3 61 8 3 5 9 7 13 5 16 -11 89 71 100
112 8 29 11 197 9 554 -3 495 -4 514 -23 540 -11 14 -36 34 -55 43 -36 18
-124 29 -150 19z"/>
<path d="M3732 5648 c-50 -17 -89 -68 -96 -125 -8 -61 -3 -602 5 -597 3 2 14
-14 24 -36 10 -22 21 -40 25 -40 3 0 17 -10 30 -22 20 -19 35 -23 101 -23 71
0 80 2 107 28 15 15 31 25 35 22 4 -3 5 -2 3 1 -2 3 4 24 15 47 17 38 19 69
19 347 0 344 -1 349 -76 385 -46 22 -145 29 -192 13z"/>
</g>
</svg>
