<svg xmlns="http://www.w3.org/2000/svg" width="784" height="1168" viewBox="0 0 784 1168" version="1.1"><path d="M 147.500 401 C 146.762 402.194, 148.722 402.194, 151.500 401 C 153.286 400.233, 153.212 400.133, 150.809 400.070 C 149.329 400.032, 147.840 400.450, 147.500 401 M 183 402.008 C 183 402.554, 183.787 403.005, 184.750 403.012 C 185.713 403.019, 188.477 404.154, 190.893 405.535 C 195.459 408.145, 197.782 408.369, 193.781 405.814 C 190.040 403.424, 183 400.939, 183 402.008 M 138.500 404.602 C 134.176 406.808, 129.516 410.089, 132.500 408.827 C 136.410 407.173, 145 402.775, 145 402.427 C 145 401.568, 143.393 402.106, 138.500 404.602 M 202.645 414.153 C 208.383 421.494, 210.149 423.477, 209.165 421.474 C 208.617 420.360, 206.284 417.435, 203.979 414.974 C 200.772 411.550, 200.459 411.357, 202.645 414.153 M 121.354 417.750 C 118.721 421.062, 115.857 425.339, 117.169 424 C 121.517 419.562, 126.037 414, 125.295 414 C 124.767 414, 122.993 415.688, 121.354 417.750 M 217 447.833 C 217 450.125, 217.470 452, 218.045 452 C 218.707 452, 218.842 450.624, 218.413 448.250 C 217.474 443.061, 217 442.921, 217 447.833 M 217.667 454.667 C 217.300 455.033, 217 457.358, 217 459.833 C 217 465.457, 217.589 464.976, 218.329 458.750 C 218.905 453.906, 218.838 453.495, 217.667 454.667 M 215.603 467.854 C 214.698 471.611, 211.067 480.231, 210.065 481 C 209.707 481.275, 208.083 483.637, 206.457 486.248 C 204.831 488.860, 203.162 490.997, 202.750 490.998 C 202.338 490.999, 202 491.505, 202 492.122 C 202 494.216, 204.891 490.931, 209.627 483.455 C 212.169 479.441, 214.184 475.893, 214.104 475.568 C 214.025 475.244, 214.671 473.603, 215.540 471.922 C 216.410 470.240, 216.962 467.883, 216.766 466.682 C 216.480 464.922, 216.255 465.149, 215.603 467.854 M 112 479.344 C 112 481.493, 116.366 487.995, 120.164 491.500 C 124.047 495.084, 124.170 495.136, 121.347 492 C 119.615 490.075, 116.803 486.274, 115.099 483.554 C 113.394 480.834, 112 478.939, 112 479.344 M 196.760 496.175 C 194.703 497.827, 189.978 500.476, 186.260 502.062 C 182.542 503.648, 180.334 504.958, 181.354 504.973 C 183.484 505.004, 195.337 498.899, 198.892 495.941 C 202.796 492.691, 200.830 492.907, 196.760 496.175 M 126.443 496.907 C 126.819 497.516, 128.561 498.708, 130.313 499.556 C 133.271 500.986, 133.356 500.980, 131.500 499.475 C 128.463 497.012, 125.614 495.566, 126.443 496.907 M 144.500 505.462 C 146.700 506.224, 150.525 506.825, 153 506.798 L 157.500 506.750 152.500 506.012 C 149.750 505.606, 145.925 505.005, 144 504.676 C 140.557 504.088, 140.565 504.101, 144.500 505.462 M 170.500 506 L 166.500 506.716 170.500 506.758 C 172.700 506.782, 175.625 506.440, 177 506 L 179.500 505.199 177 505.242 C 175.625 505.265, 172.700 505.606, 170.500 506 M 510.121 506.710 C 503.250 510.095, 502.451 519.138, 508.505 525.005 C 514.844 531.149, 524.086 529.689, 529.064 521.759 C 531.921 517.208, 531.209 510.437, 527.543 507.283 C 524.246 504.448, 515.310 504.154, 510.121 506.710 M 325.359 510.780 C 313.774 511.047, 313.190 511.162, 312.622 513.280 C 312.295 514.501, 312.021 537.164, 312.014 563.643 C 312.001 606.629, 312.169 611.851, 313.582 612.393 C 314.452 612.727, 318.738 613, 323.107 613 C 330.713 613, 331.091 612.891, 332.025 610.435 C 332.561 609.024, 333 600.699, 333 591.935 L 333 576 339.053 576 C 353.994 576, 367.766 569.797, 373.684 560.402 C 378.024 553.511, 379.395 548.644, 379.437 539.981 C 379.468 533.592, 379.025 531.563, 376.487 526.481 C 369.739 512.970, 360.008 509.981, 325.359 510.780 M 463.639 519.215 C 463.303 520.472, 463.021 524.763, 463.014 528.750 L 463 536 458.082 536 C 450.142 536, 450 536.158, 450 544.990 C 450 553.707, 450.235 553.956, 458.500 553.989 L 462.500 554.004 462.524 578.252 C 462.547 601.556, 462.637 602.668, 464.833 606.826 C 468.094 613, 471.793 614.316, 484.470 613.813 C 490.475 613.574, 495.704 612.826, 497.500 611.948 C 500.346 610.556, 500.515 610.128, 500.798 603.620 L 501.097 596.758 496.442 597.456 C 490.727 598.313, 486.739 596.833, 484.931 593.182 C 484.026 591.356, 483.477 584.719, 483.208 572.391 L 482.814 554.282 485.157 553.655 C 486.446 553.310, 490.556 553.021, 494.290 553.014 L 501.081 553 500.790 544.750 L 500.500 536.500 492.287 536.210 L 484.074 535.920 483.787 526.710 L 483.500 517.500 473.876 517.215 C 464.586 516.940, 464.230 517.010, 463.639 519.215 M 699.607 519.582 C 699.273 520.452, 699 524.727, 699 529.082 L 699 537 693 537 L 687 537 687 544.893 C 687 553.776, 687.187 554, 694.582 554 L 699 554 699 574.451 C 699 585.699, 699.490 597.187, 700.089 599.980 C 701.398 606.084, 704.991 610.637, 710.459 613.120 C 715.585 615.449, 730.381 615.703, 735.532 613.551 L 739 612.102 739 604.006 L 739 595.909 735.250 596.617 C 728.700 597.853, 723.027 597.456, 721.202 595.633 C 719.711 594.143, 719.500 591.421, 719.500 573.716 L 719.500 553.500 728 553 L 736.500 552.500 736.500 544.500 L 736.500 536.500 727.750 536.211 L 719 535.922 719 526.961 L 719 518 709.607 518 C 701.964 518, 700.101 518.295, 699.607 519.582 M 333 542.375 L 333 558 338.480 558 C 349.642 558, 355.946 552.696, 356.783 542.599 C 357.255 536.914, 355.827 532.964, 352.074 529.567 C 350.431 528.080, 348.005 527.537, 341.472 527.194 L 333 526.749 333 542.375 M 74.913 534.922 C 70.226 538.318, 64 544.864, 64 546.396 C 64 546.673, 66.813 544.081, 70.250 540.637 C 73.688 537.193, 77.625 533.639, 79 532.740 C 80.375 531.841, 81.236 531.081, 80.913 531.052 C 80.590 531.024, 77.890 532.765, 74.913 534.922 M 404.903 535.010 C 398.058 536.086, 388.201 540.312, 387.348 542.536 C 386.675 544.289, 388.471 553.576, 389.934 555.912 C 390.676 557.097, 392.118 556.895, 398.874 554.662 C 407.675 551.754, 418.392 551.078, 421.279 553.250 C 422.355 554.059, 423.040 556.264, 423.221 559.500 L 423.500 564.500 414 565.100 C 399.705 566.003, 392.245 568.708, 386.298 575.144 C 380.271 581.666, 378.816 594.012, 383.063 602.580 C 387.217 610.962, 395.128 614.563, 407.641 613.768 C 413.272 613.410, 415.963 612.647, 420.375 610.157 C 423.452 608.421, 426.170 607, 426.415 607 C 426.660 607, 427.005 608.013, 427.180 609.250 C 427.476 611.334, 428.076 611.522, 435.304 611.793 L 443.107 612.086 442.804 581.212 L 442.500 550.338 439.467 545.434 C 433.939 536.499, 420.742 532.518, 404.903 535.010 M 564.949 535.301 C 555.663 537.931, 547.880 545.606, 542.211 557.724 C 539.791 562.899, 539.509 564.645, 539.505 574.500 C 539.500 584.730, 539.716 585.955, 542.590 592 C 549.977 607.536, 560.672 614, 578.991 614 C 587.160 614, 603.268 610.942, 605.349 608.996 C 605.816 608.560, 603.905 604.806, 601.104 600.654 L 596.010 593.106 590.582 595.591 C 587.597 596.958, 582.944 598.338, 580.242 598.658 C 570.806 599.775, 562.819 593.819, 561.313 584.541 L 560.738 581 581.798 581 C 606.718 581, 606.006 581.289, 605.988 571.179 C 605.961 555.758, 599.207 543.179, 587.871 537.435 C 581.972 534.446, 571.433 533.464, 564.949 535.301 M 257.547 539.235 C 259.721 541.564, 261.613 543.664, 261.750 543.901 C 261.887 544.139, 262.217 544.117, 262.481 543.852 C 263.061 543.272, 255.487 535, 254.375 535 C 253.946 535, 255.373 536.906, 257.547 539.235 M 644.596 537.537 C 641.899 538.874, 638.938 540.651, 638.017 541.484 C 635.689 543.592, 634.826 543.379, 635.039 540.750 C 635.434 535.879, 635.495 535.910, 625.750 536.212 L 616.500 536.500 616.238 573.383 C 616.050 599.773, 616.298 610.654, 617.110 611.633 C 618.577 613.401, 633.062 613.538, 634.800 611.800 C 635.669 610.931, 636 603.752, 636 585.785 L 636 560.971 639.251 557.424 C 644.741 551.433, 654.418 551.357, 658.027 557.277 C 659.848 560.264, 659.993 562.418, 659.996 586.643 C 660 609.557, 660.195 612.861, 661.582 613.393 C 663.943 614.299, 678.300 614.096, 679.815 613.135 C 680.868 612.468, 681.068 606.029, 680.815 580.901 C 680.471 546.626, 680.458 546.544, 674.339 540.864 C 669.350 536.232, 665.724 534.996, 657.300 535.053 C 651.122 535.094, 648.480 535.611, 644.596 537.537 M 508.470 537.218 C 508.197 537.928, 508.093 554.932, 508.237 575.004 L 508.500 611.500 518.222 611.786 C 527.629 612.062, 527.962 611.998, 528.501 609.786 C 528.807 608.529, 528.932 591.525, 528.779 572 L 528.500 536.500 518.733 536.214 C 511.464 536, 508.838 536.257, 508.470 537.218 M 185.269 546.940 C 182.941 547.319, 180.727 547.940, 180.348 548.319 C 179.566 549.101, 188.199 548.068, 192 546.924 L 194.500 546.172 192 546.211 C 190.625 546.233, 187.596 546.561, 185.269 546.940 M 265 549.833 C 265 550.292, 265.337 550.999, 265.750 551.405 C 266.163 551.811, 267.028 553.574, 267.674 555.322 C 268.365 557.194, 268.879 557.760, 268.924 556.700 C 268.966 555.711, 268.313 553.573, 267.474 551.950 C 265.968 549.038, 265 548.210, 265 549.833 M 169.390 552.605 C 164.359 555.974, 161 559.083, 161 560.370 C 161 560.932, 162.534 559.905, 164.409 558.088 C 166.284 556.270, 169.547 553.721, 171.659 552.423 C 173.772 551.125, 175 550.048, 174.390 550.031 C 173.779 550.014, 171.529 551.172, 169.390 552.605 M 566.490 554.310 C 563.495 557.305, 560.121 565.455, 561.362 566.696 C 562.004 567.338, 565.342 567.443, 577.295 567.200 L 587.091 567 586.424 563.250 C 584.998 555.233, 580.481 551, 573.353 551 C 570.665 551, 568.994 551.806, 566.490 554.310 M 271.500 622.947 C 271.500 654.772, 271.831 680.291, 272.235 679.655 C 273.158 678.204, 273.105 569.116, 272.180 566.792 C 271.806 565.853, 271.500 591.122, 271.500 622.947 M 178.500 572.469 C 176.850 573.821, 175.885 574.944, 176.356 574.964 C 176.826 574.984, 178.548 573.875, 180.182 572.500 C 181.816 571.125, 182.781 570.002, 182.327 570.005 C 181.872 570.008, 180.150 571.117, 178.500 572.469 M 150.513 581.250 C 147.581 587.609, 147.563 587.706, 149.802 584.921 C 151.648 582.626, 153.809 577, 152.844 577 C 152.639 577, 151.590 578.913, 150.513 581.250 M 406.984 579.867 C 400.883 583.137, 399.374 591.374, 404.025 596.025 C 408.203 600.203, 420.901 596.999, 423.118 591.209 C 423.700 589.689, 423.870 586.195, 423.506 583.250 L 422.856 578 416.662 578 C 412.526 578, 409.311 578.620, 406.984 579.867 M 208.272 589 C 208.272 591.475, 208.467 592.487, 208.706 591.250 C 208.944 590.013, 208.944 587.987, 208.706 586.750 C 208.467 585.513, 208.272 586.525, 208.272 589 M 136.500 589 L 127.500 589.622 136.691 589.811 C 141.954 589.919, 146.146 589.573, 146.500 589 C 146.840 588.450, 146.754 588.085, 146.309 588.189 C 145.864 588.293, 141.450 588.658, 136.500 589 M 109.553 589.914 C 109.234 590.430, 110.404 590.607, 112.244 590.320 C 116.587 589.643, 117.065 589, 113.226 589 C 111.516 589, 109.864 589.411, 109.553 589.914 M 92.209 620 C 92.063 628.525, 91.727 645.850, 91.463 658.500 C 91.127 674.634, 91.288 680.792, 92.004 679.130 C 92.653 677.622, 92.925 663.613, 92.749 640.630 C 92.598 620.758, 92.355 611.475, 92.209 620 M 123.966 609.820 C 120.025 611.567, 114.995 616.984, 115.004 619.473 C 115.006 620.038, 115.915 619.011, 117.024 617.192 C 120.855 610.909, 131.762 608.203, 139.768 611.548 C 144.391 613.479, 148 616.797, 148 619.115 C 148 620.087, 148.450 621.160, 149 621.500 C 150.801 622.613, 150.048 618.876, 147.849 615.788 C 144.807 611.516, 138.746 609.034, 131.500 609.092 C 128.200 609.119, 124.810 609.446, 123.966 609.820 M 208.320 615 C 208.320 618.575, 208.502 620.038, 208.723 618.250 C 208.945 616.462, 208.945 613.538, 208.723 611.750 C 208.502 609.962, 208.320 611.425, 208.320 615 M 208.355 630.500 C 208.352 635.450, 208.521 637.601, 208.731 635.280 C 208.940 632.959, 208.943 628.909, 208.736 626.280 C 208.530 623.651, 208.358 625.550, 208.355 630.500 M 311.502 636.135 C 311.206 636.906, 311.084 648.554, 311.232 662.019 L 311.500 686.500 324.531 686.500 C 336.544 686.500, 337.950 686.300, 342.522 683.945 C 345.520 682.401, 348.672 679.698, 350.491 677.111 C 353.189 673.274, 353.536 671.915, 353.848 663.968 C 354.413 649.540, 350.428 641.610, 340.500 637.408 C 334.984 635.074, 312.291 634.077, 311.502 636.135 M 516.163 636.304 C 515.525 637.073, 512.394 643.882, 509.205 651.436 C 506.016 658.991, 502.984 665.020, 502.467 664.836 C 501.951 664.651, 499.700 660.441, 497.466 655.480 C 495.232 650.520, 492.294 644.445, 490.937 641.980 L 488.470 637.500 482.218 637.202 L 475.965 636.904 476.232 661.702 L 476.500 686.500 478.852 686.833 C 480.145 687.016, 482.283 686.895, 483.602 686.564 L 486 685.962 486.096 669.731 C 486.205 651.243, 485.182 650.984, 494 671.730 C 498.646 682.660, 500.768 685.268, 503.574 683.495 C 504.439 682.948, 507.922 676.087, 511.312 668.250 C 514.703 660.413, 517.820 654, 518.239 654 C 518.657 654, 519 661.650, 519 671 L 519 688 523.517 688 L 528.033 688 527.767 661.750 L 527.500 635.500 522.411 635.203 C 518.971 635.003, 516.947 635.359, 516.163 636.304 M 399.627 640.530 C 399.282 641.429, 399 643.672, 399 645.515 C 399 648.407, 398.631 648.911, 396.316 649.184 C 394.317 649.419, 393.435 650.244, 392.859 652.414 C 391.864 656.161, 392.450 657, 396.059 657 L 399 657 399 668.550 C 399 681.533, 400.088 684.965, 404.824 686.927 C 406.429 687.592, 409.488 687.993, 411.621 687.818 C 415.303 687.516, 415.516 687.313, 415.807 683.806 C 416.100 680.285, 415.947 680.081, 412.557 679.445 L 409 678.777 409 667.889 L 409 657 412.387 657 C 415.379 657, 415.824 656.654, 416.210 654.023 C 416.738 650.422, 415.505 649, 411.855 649 C 409.289 649, 409.090 648.689, 408.805 644.250 L 408.500 639.500 404.377 639.199 C 401.294 638.973, 400.095 639.310, 399.627 640.530 M 208 654 C 208 661.333, 208.255 667.078, 208.566 666.767 C 209.265 666.068, 209.208 641.875, 208.506 641.173 C 208.228 640.894, 208 646.667, 208 654 M 321.225 661.250 L 321.500 677.500 328.283 677.344 C 339.125 677.093, 343 672.922, 343 661.500 C 343 650.016, 338.213 645.010, 327.225 645.004 L 320.950 645 321.225 661.250 M 620.313 648.102 C 614.475 649.792, 610.239 658.043, 615.250 657.965 C 616.487 657.945, 618.625 657.286, 620 656.500 C 623.869 654.288, 628.618 654.617, 630.443 657.223 C 633.187 661.140, 632.482 662.999, 628.250 663.006 C 622.168 663.015, 616.819 664.981, 613.297 668.503 C 610.576 671.224, 610.001 672.560, 610.004 676.150 C 610.009 682.204, 612.898 686.590, 617.862 688.077 C 622.643 689.509, 626.381 688.710, 629.503 685.588 C 631.685 683.406, 631.865 683.377, 632.323 685.128 C 632.701 686.573, 633.747 687, 636.906 687 L 641 687 641 671.135 C 641 656.374, 640.849 655.078, 638.832 652.514 C 634.955 647.584, 627.906 645.906, 620.313 648.102 M 366.075 649.752 C 362.012 651.825, 360.432 654.076, 361.352 656.476 C 361.883 657.859, 362.699 658.081, 365.262 657.540 C 367.043 657.164, 370.600 656.623, 373.167 656.337 C 377.350 655.872, 378.008 656.083, 379.504 658.365 C 380.421 659.766, 380.922 661.318, 380.616 661.813 C 380.309 662.309, 377.628 662.965, 374.657 663.272 C 368.463 663.911, 361.847 666.952, 359.566 670.209 C 357.526 673.122, 357.561 679.928, 359.631 682.883 C 362.952 687.625, 371.049 689.260, 377.618 686.515 C 380.785 685.192, 381.341 685.198, 382.712 686.569 C 383.559 687.416, 385.432 687.972, 386.876 687.804 L 389.500 687.500 389.761 672.500 C 389.997 658.906, 389.831 657.190, 387.989 654.190 C 386.871 652.369, 384.406 650.232, 382.510 649.440 C 377.832 647.485, 370.232 647.629, 366.075 649.752 M 427.413 648.943 C 422.721 650.065, 422 650.819, 422 654.611 L 422 658.104 430.483 657.416 C 439.830 656.658, 442 657.450, 442 661.622 C 442 663.884, 441.680 664, 435.450 664 C 425.812 664, 420.457 667.407, 419.348 674.244 C 418.592 678.902, 421.215 684.262, 425.337 686.482 C 427.816 687.817, 429.840 688.075, 434.034 687.591 C 437.040 687.244, 442.087 686.995, 445.250 687.038 L 451 687.115 451 670.732 C 451 655.033, 450.906 654.261, 448.750 652.241 C 447.512 651.082, 445.233 649.653, 443.685 649.067 C 440.545 647.877, 432.138 647.813, 427.413 648.943 M 540 649.288 C 538.250 650.168, 537.406 651.516, 537.186 653.780 C 536.781 657.955, 538.719 658.730, 544.143 656.559 C 548.987 654.621, 553.536 655.265, 555.055 658.102 C 556.435 660.682, 555.469 661.999, 552.191 662.006 C 542.096 662.026, 533 669.631, 533 678.050 C 533 680.275, 533.961 682.161, 536.274 684.474 C 540.244 688.444, 545.854 689.668, 552.137 687.934 C 554.537 687.272, 558.300 686.678, 560.500 686.615 L 564.500 686.500 564.777 671.752 C 565.085 655.304, 564.293 652.237, 559.033 649.517 C 555.433 647.656, 543.528 647.512, 540 649.288 M 572.857 651.750 C 572.633 653.813, 572.686 662.700, 572.975 671.500 L 573.500 687.500 578 687.500 L 582.500 687.500 583 673.167 C 583.443 660.468, 583.721 658.673, 585.441 657.417 C 587.997 655.551, 591.475 655.618, 593.429 657.571 C 594.707 658.849, 595 661.741, 595 673.052 C 595 686.898, 595.011 686.965, 597.398 687.564 C 598.717 687.895, 600.855 688.016, 602.148 687.833 C 604.472 687.504, 604.504 687.335, 604.805 673.500 C 605.166 656.966, 604.247 652.731, 599.696 649.956 C 595.330 647.294, 588.096 647.350, 584.635 650.073 L 582 652.145 582 650.073 C 582 648.292, 581.384 648, 577.632 648 C 573.323 648, 573.258 648.051, 572.857 651.750 M 656.500 649.881 C 651.598 652.132, 649.226 654.701, 647.449 659.684 C 644.038 669.248, 647.122 680.813, 654 684.248 C 658.702 686.597, 664.510 686.466, 668.632 683.918 L 672 681.837 672 685.464 C 672 688.036, 671.244 689.847, 669.402 691.689 C 666.850 694.241, 666.624 694.276, 656.902 693.639 C 647.874 693.047, 647.003 693.145, 647.032 694.745 C 647.164 702.045, 663.150 705.736, 673.038 700.750 C 680.570 696.952, 681.062 695.024, 680.759 670.500 L 680.500 649.500 677.123 649.177 C 675.265 649, 673.306 649.294, 672.768 649.832 C 672.131 650.469, 670.618 650.321, 668.427 649.405 C 663.997 647.554, 661.336 647.660, 656.500 649.881 M 697 648.722 C 689.619 651.495, 686 657.999, 686 668.492 C 686 676.947, 687.434 681.292, 691.449 685 C 693.909 687.271, 695.101 687.531, 704.497 687.839 C 714.634 688.171, 714.870 688.127, 716.502 685.638 C 718.418 682.714, 717.764 679.377, 715.110 678.535 C 714.127 678.223, 711.658 678.663, 709.624 679.512 C 704.015 681.856, 698.345 680.069, 696.366 675.333 C 695.550 673.381, 695.171 671.495, 695.522 671.142 C 695.874 670.789, 700.857 670.346, 706.595 670.159 C 718.617 669.765, 719.603 669.040, 718.724 661.239 C 718.119 655.879, 715.566 652.116, 710.929 649.752 C 707.651 648.080, 700.177 647.528, 697 648.722 M 724.714 648.619 C 724.321 649.012, 724 657.834, 724 668.224 L 724 687.115 728.250 686.807 L 732.500 686.500 733 674.850 C 733.566 661.669, 734.441 659.847, 741.175 657.830 C 745.947 656.400, 747.235 654.913, 746.822 651.310 C 746.545 648.889, 746.010 648.459, 742.960 648.202 C 740.484 647.994, 738.324 648.648, 735.770 650.381 L 732.120 652.858 731.810 650.679 C 731.581 649.070, 730.705 648.422, 728.464 648.203 C 726.794 648.039, 725.107 648.227, 724.714 648.619 M 698.913 656.282 C 696.734 657.955, 694.778 661.832, 695.513 663.021 C 696.175 664.093, 704.885 664.365, 707.418 663.393 C 709.736 662.504, 709.347 658.356, 706.777 656.557 C 704.137 654.707, 701.103 654.601, 698.913 656.282 M 658.455 658.455 C 656.348 660.561, 656 661.838, 656 667.455 C 656 672.667, 656.407 674.407, 658 676 C 660.859 678.859, 664.641 678.513, 668.077 675.077 C 670.666 672.488, 671 671.460, 671 666.077 C 671 661.333, 670.561 659.561, 669 658 C 666.220 655.220, 661.485 655.424, 658.455 658.455 M 208.310 674.500 C 208.315 677.800, 208.502 679.029, 208.725 677.232 C 208.947 675.435, 208.943 672.735, 208.715 671.232 C 208.486 669.729, 208.304 671.200, 208.310 674.500 M 375.094 670.385 C 372.243 671.106, 369.948 672.500, 368.594 674.333 L 366.500 677.166 368.963 679.165 C 373.660 682.980, 381 679.189, 381 672.948 C 381 669.300, 380.404 669.042, 375.094 670.385 M 546.339 670.935 C 541.952 673.610, 541.080 676.836, 544.086 679.270 C 548.886 683.157, 556 679.048, 556 672.389 C 556 669.231, 555.778 669, 552.750 669.004 C 550.962 669.006, 548.078 669.875, 546.339 670.935 M 622 671.288 C 619.187 672.704, 618.119 677.234, 620.050 679.560 C 621.668 681.509, 626.037 681.321, 628.583 679.192 C 629.728 678.234, 630.937 675.774, 631.270 673.725 L 631.874 670 628.187 670.015 C 626.159 670.023, 623.375 670.596, 622 671.288 M 430.223 672.557 C 425.417 675.923, 429.815 681.887, 436.166 680.617 C 440.618 679.726, 442 678.248, 442 674.378 C 442 671.012, 441.983 671, 437.223 671 C 434.517 671, 431.481 671.675, 430.223 672.557 M 148.025 680.896 C 146.714 686.359, 144.260 689.158, 138.768 691.452 C 131.587 694.453, 123.990 692.784, 119.255 687.164 C 116.935 684.411, 116.106 685.243, 118.299 688.123 C 122.425 693.543, 133.017 695.691, 140.400 692.606 C 144.812 690.763, 149.050 685.049, 149.722 680.037 C 150.471 674.454, 149.446 674.973, 148.025 680.896 M 207 682.596 C 207 685.337, 203.644 690.049, 200.152 692.212 C 198.310 693.352, 194.260 694.612, 191.152 695.011 L 185.500 695.738 190.185 695.869 C 192.762 695.941, 196.137 695.520, 197.685 694.932 C 201.655 693.427, 208 686.343, 208 683.416 C 208 682.087, 207.775 681, 207.500 681 C 207.225 681, 207 681.718, 207 682.596 M 88.651 684.720 C 86.871 688.150, 84.347 689.902, 79.500 691.071 C 76.625 691.765, 76.608 691.800, 79.096 691.898 C 84.296 692.103, 91.877 686.099, 90.724 682.689 C 90.503 682.035, 89.570 682.949, 88.651 684.720 M 269.309 684.619 C 268.697 686.334, 266.914 688.936, 265.348 690.401 C 261.969 693.560, 253.189 696.358, 248.406 695.799 C 246.533 695.581, 245 695.761, 245 696.201 C 245 698.418, 263.021 695.436, 263.804 693.089 C 264.003 692.490, 264.760 692, 265.485 692 C 267.179 692, 271.198 685.227, 270.759 683.113 C 270.544 682.080, 270.023 682.622, 269.309 684.619 M 56.079 684.927 C 57.483 687.100, 62 690.850, 62 689.842 C 62 689.621, 60.315 687.879, 58.256 685.970 C 55.468 683.386, 54.912 683.119, 56.079 684.927 M 173.039 685.538 C 172.982 688.507, 177.983 693.903, 181.769 694.960 C 183.791 695.524, 184.818 695.514, 184.460 694.936 C 184.142 694.421, 183.294 694, 182.576 694 C 180.399 694, 175.848 689.861, 174.421 686.585 C 173.392 684.220, 173.069 683.976, 173.039 685.538" stroke="none" fill="#0d0d0e" fill-rule="evenodd"/><path d="M 157.948 398.947 C 158.893 399.545, 157.851 399.685, 154.948 399.352 C 152.017 399.015, 150.955 399.162, 151.835 399.782 C 152.861 400.505, 152.630 400.867, 150.835 401.348 C 147.606 402.212, 146.789 402.151, 147.442 401.093 C 147.751 400.595, 147.107 400.421, 146.013 400.707 C 144.918 400.993, 144.247 401.591, 144.522 402.035 C 144.942 402.715, 142.875 403.895, 132.611 408.832 C 132.122 409.067, 132.055 408.639, 132.462 407.880 C 132.870 407.121, 132.016 407.942, 130.565 409.704 C 129.093 411.492, 127.324 412.678, 126.564 412.386 C 124.867 411.735, 114.769 423.954, 115.477 425.801 C 115.752 426.518, 115.551 426.841, 115.031 426.519 C 113.770 425.740, 110.703 431.783, 111.416 433.642 C 111.770 434.563, 111.558 434.845, 110.843 434.403 C 110.044 433.909, 109.908 434.559, 110.385 436.601 C 110.814 438.440, 110.732 439.008, 110.163 438.155 C 109.489 437.147, 109.099 437.471, 108.602 439.451 C 108.237 440.904, 108.204 442.521, 108.528 443.046 C 108.853 443.571, 108.680 444, 108.144 444 C 107.566 444, 107.179 448.733, 107.192 455.634 C 107.206 462.579, 107.564 466.711, 108.080 465.884 C 108.605 465.043, 108.726 466.069, 108.389 468.500 C 107.950 471.665, 108.077 472.187, 108.998 471 C 109.934 469.793, 110.040 470.054, 109.541 472.334 C 109.111 474.296, 109.265 474.954, 110.041 474.474 C 110.734 474.046, 111.088 474.492, 110.966 475.641 C 110.635 478.778, 110.958 480.144, 111.895 479.565 C 113.041 478.857, 114.218 481.838, 113.349 483.245 C 112.986 483.832, 113.159 484.020, 113.736 483.663 C 114.311 483.308, 115.505 484.122, 116.391 485.473 C 118.322 488.422, 118.438 489.368, 116.750 488.404 C 116.063 488.012, 116.850 489.151, 118.500 490.937 C 121.849 494.560, 127.806 499.114, 126.560 497.097 C 125.920 496.061, 126.190 496.031, 127.907 496.950 C 129.089 497.583, 129.795 498.523, 129.476 499.039 C 129.157 499.555, 129.591 499.711, 130.440 499.385 C 131.335 499.041, 132.231 499.440, 132.574 500.333 C 132.899 501.180, 133.799 501.630, 134.574 501.333 C 135.349 501.036, 136.249 501.486, 136.574 502.333 C 136.899 503.180, 137.803 503.629, 138.583 503.330 C 139.362 503.031, 140 503.242, 140 503.799 C 140 504.357, 140.970 504.559, 142.156 504.249 C 143.763 503.829, 144.106 504.020, 143.502 504.997 C 142.993 505.820, 143.083 506.067, 143.743 505.659 C 144.321 505.302, 147.571 505.299, 150.964 505.654 C 154.851 506.060, 156.647 506.608, 155.817 507.134 C 155.037 507.629, 157.275 507.976, 161.309 507.985 C 165.054 507.993, 167.877 507.611, 167.583 507.135 C 166.972 506.146, 177.650 504.666, 179.068 505.542 C 179.581 505.859, 180 505.732, 180 505.260 C 180 503.987, 186.802 501.760, 188.149 502.592 C 188.923 503.070, 189.037 502.868, 188.490 501.985 C 187.891 501.015, 188.132 500.836, 189.388 501.319 C 190.544 501.762, 190.870 501.599, 190.388 500.819 C 189.905 500.038, 190.231 499.875, 191.388 500.319 C 192.407 500.710, 192.856 500.576, 192.493 499.989 C 191.933 499.082, 193.308 498.556, 195.324 498.906 C 195.778 498.985, 195.878 498.611, 195.546 498.075 C 194.818 496.896, 198.439 494.772, 199.452 495.785 C 199.845 496.178, 200.017 495.825, 199.833 495 C 199.650 494.175, 200.063 493.612, 200.750 493.750 C 201.438 493.887, 202 493.555, 202 493.011 C 202 491.577, 205.231 488.024, 206.065 488.540 C 206.455 488.781, 206.712 488.207, 206.637 487.263 C 206.562 486.320, 207.025 485.537, 207.667 485.524 C 208.308 485.511, 209.208 485.090, 209.667 484.590 C 210.161 484.050, 209.922 484.015, 209.080 484.504 C 208.008 485.126, 207.824 484.900, 208.330 483.582 C 208.699 482.622, 209 481.648, 209 481.418 C 209 481.188, 209.477 481, 210.059 481 C 210.641 481, 210.797 481.520, 210.405 482.155 C 209.972 482.854, 210.129 483.038, 210.802 482.622 C 211.413 482.245, 211.631 481.202, 211.286 480.304 C 210.834 479.125, 211.028 478.899, 211.985 479.490 C 212.869 480.037, 213.070 479.923, 212.590 479.146 C 211.651 477.627, 212.872 473.803, 214.061 474.537 C 214.566 474.850, 214.682 474.334, 214.319 473.388 C 213.836 472.132, 214.015 471.891, 214.985 472.490 C 215.876 473.041, 216.071 472.923, 215.580 472.130 C 215.180 471.482, 215.159 469.552, 215.535 467.842 C 216.026 465.606, 216.454 465.116, 217.060 466.097 C 217.539 466.873, 217.649 464.996, 217.314 461.749 C 216.899 457.735, 217.118 455.563, 218.048 454.442 C 219.147 453.118, 219.145 452.707, 218.036 452.023 C 217.040 451.407, 216.868 449.713, 217.357 445.349 C 217.844 441.007, 217.732 439.887, 216.922 441 C 216.069 442.174, 215.935 441.847, 216.305 439.500 C 216.566 437.850, 216.410 435.600, 215.960 434.500 C 215.395 433.122, 215.097 432.967, 215 434 C 214.902 435.045, 214.599 434.893, 214 433.500 C 212.776 430.652, 212.838 429.233, 214.110 431 C 215.007 432.248, 215.089 432.192, 214.594 430.668 C 214.267 429.661, 214 428.648, 214 428.418 C 214 428.188, 213.377 428, 212.617 428 C 211.856 428, 210.998 427.099, 210.710 425.999 C 210.368 424.691, 210.587 424.201, 211.343 424.585 C 211.979 424.909, 211.423 424.296, 210.106 423.224 C 208.790 422.152, 207.997 420.814, 208.345 420.251 C 208.693 419.687, 208.195 418.613, 207.239 417.863 C 205.665 416.630, 205.630 416.666, 206.872 418.250 C 207.771 419.395, 207.857 420, 207.122 420 C 206.082 420, 205.884 419.526, 205.585 416.317 C 205.524 415.667, 204.355 413.935, 202.987 412.469 C 199.975 409.242, 194.312 405.078, 195.459 406.933 C 196.016 407.836, 195.834 408.111, 194.889 407.796 C 194.125 407.542, 193.500 406.846, 193.500 406.250 C 193.500 405.654, 193.090 404.792, 192.590 404.333 C 192.050 403.839, 192.015 404.078, 192.504 404.920 C 193.126 405.992, 192.900 406.176, 191.582 405.670 C 190.622 405.301, 189.622 405, 189.359 405 C 189.097 405, 189.157 404.555, 189.493 404.011 C 189.856 403.424, 189.407 403.290, 188.388 403.681 C 187.335 404.085, 186.917 403.944, 187.306 403.314 C 187.699 402.678, 187.001 402.468, 185.470 402.761 C 183.658 403.107, 183 402.798, 183 401.598 C 183 400.328, 182.408 400.111, 180.351 400.627 C 178.459 401.102, 177.908 400.957, 178.424 400.122 C 178.951 399.270, 177.975 399.099, 174.824 399.493 C 171.672 399.887, 171.042 399.776, 172.500 399.087 C 173.930 398.410, 171.934 398.125, 165.500 398.086 C 159.682 398.050, 157.012 398.355, 157.948 398.947 M 121.354 417.750 C 118.721 421.062, 115.857 425.339, 117.169 424 C 121.517 419.562, 126.037 414, 125.295 414 C 124.767 414, 122.993 415.688, 121.354 417.750 M 114.016 521.089 C 109.349 521.538, 105.375 522.376, 105.183 522.951 C 104.990 523.529, 103.755 523.726, 102.417 523.390 C 100.887 523.006, 100 523.215, 100 523.959 C 100 524.650, 99.233 524.891, 98.141 524.545 C 97.118 524.220, 95.506 524.252, 94.557 524.616 C 93.176 525.147, 93.098 525.462, 94.166 526.200 C 95.029 526.796, 94.265 526.902, 92 526.500 C 89.293 526.019, 88.840 526.131, 90 526.993 C 91.261 527.930, 91.184 528.057, 89.511 527.792 C 88.418 527.619, 86.730 528.270, 85.761 529.239 C 83.830 531.170, 81.476 531.657, 82.562 529.900 C 83.039 529.127, 82.611 529.138, 81.121 529.935 C 79.954 530.560, 79 531.306, 79 531.594 C 79 531.882, 79.563 531.827, 80.250 531.472 C 80.938 531.117, 80.375 531.758, 79 532.895 C 77.625 534.033, 75.970 534.774, 75.323 534.542 C 74.189 534.134, 71.379 536.682, 71.615 537.904 C 71.678 538.232, 69.991 540.476, 67.865 542.891 C 65.739 545.306, 64 546.910, 64 546.455 C 64 546.001, 65.013 544.478, 66.250 543.072 L 68.500 540.514 66.148 542.505 C 63.278 544.933, 60.821 549.460, 61.790 550.534 C 62.180 550.966, 62.003 551.038, 61.396 550.692 C 60.789 550.346, 59.777 551.195, 59.146 552.578 C 57.739 555.667, 57.707 556.299, 59 555.500 C 59.550 555.160, 60 555.359, 60 555.941 C 60 556.523, 59.384 557, 58.632 557 C 56.524 557, 53.966 567.729, 52.952 580.821 C 51.936 593.939, 51.684 671.455, 52.639 677.230 C 52.979 679.288, 53.694 680.689, 54.235 680.355 C 54.823 679.992, 54.955 680.566, 54.566 681.791 C 54.195 682.961, 54.429 684.147, 55.114 684.570 C 55.919 685.068, 56.045 684.882, 55.500 684 C 54.949 683.108, 55.080 682.932, 55.914 683.447 C 56.586 683.862, 56.900 684.817, 56.612 685.569 C 56.323 686.321, 56.587 687.245, 57.198 687.622 C 57.871 688.038, 58.028 687.854, 57.595 687.155 C 56.601 685.546, 58.509 685.703, 59.869 687.342 C 60.481 688.080, 60.649 689.052, 60.241 689.502 C 59.834 689.952, 60.024 690.021, 60.665 689.654 C 61.305 689.287, 62.013 689.538, 62.237 690.210 C 62.481 690.943, 64.117 691.334, 66.322 691.185 C 68.577 691.033, 70 691.384, 70 692.091 C 70 692.875, 70.533 692.805, 71.663 691.872 C 72.959 690.802, 73.418 690.775, 73.746 691.750 C 73.977 692.438, 75.367 692.993, 76.833 692.985 C 78.922 692.973, 79.175 692.759, 78 692 C 76.834 691.247, 77.168 690.992, 79.500 690.858 C 81.150 690.763, 83.058 690.705, 83.739 690.730 C 84.421 690.754, 84.732 690.375, 84.430 689.887 C 84.129 689.399, 84.374 689, 84.975 689 C 85.576 689, 86.996 687.426, 88.132 685.501 C 89.267 683.577, 90.489 682.183, 90.848 682.404 C 91.207 682.624, 91.547 673.961, 91.604 663.152 C 91.846 617.485, 92.164 604.555, 93 606.500 C 93.749 608.243, 93.884 608.114, 94.048 605.500 C 94.152 603.850, 94.154 601.892, 94.052 601.150 C 93.950 600.407, 94.234 600.011, 94.683 600.270 C 95.132 600.528, 96.605 599.336, 97.956 597.620 L 100.412 594.500 97.956 596.500 L 95.500 598.500 97.301 596.365 C 98.292 595.190, 100.459 593.958, 102.117 593.627 C 103.776 593.295, 104.880 592.615, 104.572 592.117 C 103.835 590.923, 106.367 589.993, 108.982 590.496 C 110.121 590.716, 110.860 590.581, 110.624 590.198 C 110.387 589.814, 117.400 589.412, 126.208 589.305 C 143.744 589.092, 148 588.540, 148 586.480 C 148 585.731, 148.520 584.797, 149.155 584.405 C 149.931 583.925, 150.042 584.151, 149.494 585.095 C 149.030 585.895, 149.058 586.154, 149.560 585.697 C 150.044 585.255, 150.453 583.905, 150.470 582.697 C 150.486 581.489, 151.016 580.597, 151.647 580.716 C 152.352 580.848, 152.581 580.112, 152.240 578.809 C 151.852 577.324, 152.044 576.909, 152.883 577.427 C 153.744 577.960, 153.904 577.466, 153.453 575.670 C 153.017 573.932, 153.403 572.597, 154.726 571.274 C 155.770 570.230, 156.450 568.851, 156.237 568.210 C 156.023 567.569, 157.007 565.971, 158.424 564.658 C 159.841 563.345, 161 561.613, 161 560.810 C 161 558.847, 165.377 554.834, 167.113 555.204 C 167.876 555.367, 168.392 554.951, 168.260 554.280 C 167.952 552.716, 171.685 550.687, 173.175 551.608 C 173.922 552.070, 174.030 551.857, 173.490 550.985 C 172.896 550.023, 173.128 549.835, 174.336 550.299 C 175.251 550.650, 176 550.482, 176 549.925 C 176 549.368, 176.563 549.026, 177.250 549.166 C 177.938 549.305, 179.400 548.932, 180.500 548.335 C 181.600 547.739, 185.200 546.991, 188.500 546.673 C 192.803 546.259, 193.793 546.361, 192 547.032 C 190.113 547.739, 190.914 547.867, 195.265 547.555 C 199.251 547.269, 200.823 547.477, 200.359 548.228 C 199.921 548.937, 200.437 549.119, 201.844 548.751 C 203.030 548.441, 204 548.625, 204 549.161 C 204 549.709, 204.984 549.832, 206.250 549.443 C 207.488 549.063, 208.180 549.090, 207.789 549.503 C 206.954 550.387, 213.927 554.163, 215.079 553.451 C 215.509 553.185, 216.187 553.494, 216.585 554.138 C 217.067 554.917, 216.839 555.061, 215.905 554.568 C 215.132 554.160, 215.612 554.730, 216.972 555.835 C 218.332 556.940, 219.864 557.584, 220.377 557.267 C 220.889 556.950, 221.063 557.098, 220.762 557.595 C 220.116 558.665, 224.063 564.683, 225.475 564.782 C 226.011 564.819, 226.632 565.396, 226.855 566.064 C 227.077 566.732, 226.789 566.988, 226.214 566.632 C 225.524 566.206, 225.551 566.999, 226.293 568.965 C 226.911 570.603, 227.702 571.483, 228.049 570.920 C 228.397 570.357, 228.712 571.922, 228.750 574.397 C 228.787 576.871, 229.124 579.392, 229.498 579.998 C 229.873 580.603, 230.120 603.041, 230.047 629.859 C 229.922 676.118, 230.359 688.655, 232.002 685.997 C 232.472 685.237, 232.912 685.557, 233.268 686.917 C 233.631 688.303, 233.425 688.798, 232.657 688.392 C 232.021 688.056, 232.646 688.842, 234.047 690.140 C 235.448 691.438, 235.898 692.050, 235.047 691.500 C 233.701 690.630, 233.678 690.726, 234.863 692.239 C 235.613 693.195, 236.585 693.756, 237.023 693.486 C 238.342 692.671, 241.038 694.129, 240.330 695.275 C 239.928 695.926, 240.271 696.110, 241.214 695.748 C 242.062 695.423, 243.261 695.661, 243.878 696.278 C 244.575 696.975, 245 697.013, 245 696.379 C 245 695.726, 246.892 695.609, 250.250 696.054 C 253.137 696.436, 255.687 696.580, 255.917 696.374 C 256.146 696.168, 255.696 695.970, 254.917 695.933 C 253.453 695.864, 261.572 692.931, 263.694 692.762 C 264.351 692.709, 264.809 692.404, 264.712 692.083 C 264.362 690.925, 268.380 687.117, 269.333 687.706 C 269.877 688.042, 269.991 687.794, 269.590 687.146 C 269.194 686.506, 269.174 685.027, 269.545 683.859 C 270.019 682.366, 270.446 682.103, 270.984 682.974 C 271.405 683.655, 271.794 656.602, 271.850 622.856 C 271.919 580.865, 271.629 561.973, 270.931 563 C 270.118 564.195, 269.942 563.992, 270.066 562 C 270.366 557.171, 270.038 555.391, 269.117 556.845 C 268.489 557.836, 268.090 557.495, 267.602 555.549 C 267.237 554.096, 267.211 552.468, 267.544 551.929 C 267.876 551.391, 267.609 551.074, 266.949 551.225 C 266.290 551.376, 265.523 550.875, 265.245 550.111 C 264.939 549.267, 265.179 548.993, 265.859 549.413 C 266.566 549.850, 266.762 549.545, 266.394 548.584 C 266.073 547.747, 265.347 547.162, 264.780 547.282 C 264.214 547.402, 263.523 546.875, 263.245 546.111 C 262.907 545.179, 263.163 544.983, 264.025 545.515 C 264.867 546.036, 265.063 545.911, 264.595 545.155 C 264.203 544.520, 263.234 544, 262.441 544 C 261.648 544, 261 543.523, 261 542.941 C 261 542.359, 261.520 542.203, 262.155 542.595 C 262.876 543.041, 263.037 542.869, 262.585 542.138 C 262.187 541.494, 261.514 541.182, 261.089 541.445 C 260.665 541.707, 258.807 540.365, 256.962 538.461 C 255.117 536.557, 253.981 535, 254.437 535 C 254.894 535, 256.332 536.237, 257.632 537.750 C 258.933 539.263, 259.998 539.978, 259.999 539.339 C 260.001 537.606, 253.996 532.884, 252.761 533.648 C 252.152 534.024, 251.980 533.841, 252.362 533.223 C 253.173 531.911, 249.085 528.830, 247.683 529.696 C 247.137 530.033, 246.971 529.855, 247.314 529.301 C 247.657 528.746, 246.798 527.773, 245.405 527.139 C 243.961 526.481, 243.137 526.413, 243.488 526.981 C 243.843 527.556, 243.449 527.726, 242.558 527.384 C 241.707 527.057, 241.231 526.435, 241.500 526 C 242.117 525.002, 239.131 523.801, 237.910 524.556 C 237.409 524.865, 237 524.611, 237 523.992 C 237 523.298, 236.183 523.124, 234.875 523.540 C 233.319 524.034, 232.957 523.879, 233.523 522.962 C 234.092 522.042, 233.603 521.843, 231.679 522.211 C 230.065 522.519, 229.299 522.324, 229.683 521.703 C 230.088 521.048, 228.766 520.929, 225.903 521.362 C 222.827 521.828, 221.952 521.727, 223 521.030 C 224.836 519.807, 126.785 519.860, 114.016 521.089 M 183.738 568.778 C 182.769 568.983, 182.251 569.597, 182.588 570.143 C 182.928 570.692, 182.387 570.993, 181.373 570.817 C 180.294 570.630, 179.536 571.103, 179.522 571.970 C 179.510 572.779, 178.411 573.984, 177.081 574.647 C 175.750 575.310, 174.231 576.623, 173.704 577.564 C 173.027 578.774, 173.077 579.071, 173.874 578.578 C 175.566 577.532, 175.229 578.628, 173.250 580.606 C 171.636 582.219, 171.483 586.217, 171.288 631.928 C 171.151 664.113, 171.412 680.799, 172.035 679.500 C 172.733 678.042, 172.843 678.720, 172.438 682 C 172.031 685.291, 172.162 686.097, 172.926 685 C 173.808 683.731, 173.996 683.809, 174.142 685.500 C 174.237 686.600, 174.289 688.092, 174.258 688.817 C 174.226 689.541, 174.442 689.891, 174.739 689.595 C 175.035 689.298, 176.600 690.168, 178.216 691.528 C 179.831 692.888, 181.820 694, 182.636 694 C 183.451 694, 183.888 694.373, 183.606 694.828 C 182.916 695.946, 192.632 695.147, 197 693.727 C 198.925 693.102, 200.871 692.693, 201.324 692.820 C 201.778 692.946, 201.816 692.512, 201.410 691.855 C 200.914 691.051, 201.193 690.860, 202.263 691.271 C 203.158 691.614, 204.432 691.167, 205.177 690.249 C 206.285 688.882, 206.275 688.751, 205.120 689.447 C 204.161 690.025, 203.894 689.855, 204.245 688.889 C 204.523 688.125, 205.203 687.595, 205.757 687.711 C 206.311 687.827, 206.747 687.377, 206.725 686.711 C 206.703 686.045, 206.787 684.375, 206.913 683 C 207.123 680.693, 207.205 680.655, 207.969 682.500 C 208.482 683.739, 208.689 681.645, 208.512 677 C 208.288 671.113, 208.384 670.468, 208.956 674 C 209.502 677.365, 209.686 675.851, 209.686 668 C 209.686 660.013, 209.522 658.697, 209 662.500 C 208.545 665.817, 208.324 662.956, 208.343 654 C 208.370 641.840, 208.435 641.343, 209 649 C 209.345 653.675, 209.711 640.513, 209.814 619.750 C 209.931 595.937, 209.642 582, 209.031 582 C 208.499 582, 208.330 581.303, 208.657 580.452 C 208.996 579.568, 208.488 578.346, 207.473 577.604 C 206.495 576.889, 205.974 575.851, 206.316 575.297 C 207.034 574.136, 202.323 569.344, 201.385 570.282 C 201.042 570.624, 200.142 570.285, 199.384 569.527 C 198.093 568.236, 188.470 567.775, 183.738 568.778 M 273.328 581.500 C 273.333 585.350, 273.513 586.802, 273.730 584.728 C 273.946 582.653, 273.943 579.503, 273.722 577.728 C 273.501 575.952, 273.324 577.650, 273.328 581.500 M 208.272 589 C 208.272 591.475, 208.467 592.487, 208.706 591.250 C 208.944 590.013, 208.944 587.987, 208.706 586.750 C 208.467 585.513, 208.272 586.525, 208.272 589 M 208.320 615 C 208.320 618.575, 208.502 620.038, 208.723 618.250 C 208.945 616.462, 208.945 613.538, 208.723 611.750 C 208.502 609.962, 208.320 611.425, 208.320 615 M 124.147 611.534 C 122.302 612.335, 120.379 612.734, 119.872 612.421 C 119.365 612.108, 119.074 612.427, 119.225 613.130 C 119.376 613.834, 118.825 614.440, 118 614.477 C 117.114 614.517, 116.630 615.293, 116.817 616.373 C 117.030 617.601, 116.733 617.953, 115.912 617.446 C 115.093 616.940, 114.949 617.108, 115.474 617.957 C 115.930 618.696, 115.682 619.578, 114.878 620.074 C 113.772 620.757, 113.444 626.414, 113.215 648.713 C 113.011 668.675, 113.233 676.078, 114.003 675 C 114.808 673.873, 114.938 674.494, 114.526 677.500 C 114.124 680.440, 114.228 680.970, 114.919 679.500 C 115.800 677.626, 115.874 677.657, 116.088 680 C 116.214 681.375, 116.251 683.286, 116.171 684.246 C 116.091 685.206, 116.582 685.881, 117.263 685.746 C 117.943 685.611, 118.440 686.270, 118.368 687.211 C 118.295 688.152, 118.745 688.827, 119.368 688.711 C 119.990 688.595, 120.376 689.096, 120.225 689.824 C 120.074 690.553, 120.398 690.872, 120.946 690.533 C 121.493 690.195, 123.282 690.612, 124.921 691.459 C 128.724 693.426, 134.052 693.423, 138.768 691.452 C 144.261 689.157, 146.714 686.359, 148.026 680.893 C 148.672 678.198, 149.606 675.744, 150.100 675.438 C 150.595 675.132, 151 663.534, 151 649.663 C 151 628.163, 150.764 624.108, 149.400 622.160 C 148.519 620.904, 148.028 619.003, 148.306 617.936 C 148.585 616.870, 148.456 616.218, 148.020 616.488 C 147.584 616.757, 146.613 616.237, 145.863 615.331 C 141.963 610.617, 130.767 608.660, 124.147 611.534 M 208.355 630.500 C 208.352 635.450, 208.521 637.601, 208.731 635.280 C 208.940 632.959, 208.943 628.909, 208.736 626.280 C 208.530 623.651, 208.358 625.550, 208.355 630.500" stroke="none" fill="#055395" fill-rule="evenodd"/></svg>